<?xml version="1.0" encoding="UTF-8"?> <svg xmlns="http://www.w3.org/2000/svg" id="Calque_1" data-name="Calque 1" viewBox="-150 0 1500 4826.28"><defs><style>.cls-1,.cls-7{fill:#22486b;}.cls-11,.cls-12,.cls-13,.cls-14,.cls-2{fill:#faaa1c;}.cls-3,.cls-4{fill:none;stroke-miterlimit:10;stroke-width:0.5px;}.cls-3{stroke:#1a1a18;}.cls-4{stroke:#1d1d1b;}.cls-5{font-size:140.41px;fill:#1d1d1b;font-family:Ubuntu-Medium, Ubuntu Medium;font-weight:500;}.cls-6{letter-spacing:-0.01em;}.cls-11,.cls-12,.cls-13,.cls-14,.cls-7{font-size:87.11px;font-family:Ubuntu-Bold, Ubuntu;font-weight:700;}.cls-7{letter-spacing:-0.04em;}.cls-11,.cls-8{letter-spacing:-0.01em;}.cls-9{letter-spacing:-0.03em;}.cls-10{letter-spacing:-0.01em;}.cls-12{letter-spacing:-0.09em;}.cls-13{letter-spacing:-0.02em;}.cls-14{letter-spacing:-0.03em;}</style></defs><title>donation-model</title><text x="1.52" y="-10.06"></text><text x="1.52" y="-10.06"></text><path class="cls-1" d="M443.22,10.06V173s277.64,5.48,292.15,292.15c0,0-2.08,268.62-288,288V912.64s240.35,17.38,373-202.25,62.16-381.25,24.86-464.13S654.56,10.06,443.22,10.06Z" transform="translate(1.52 -10.06)"></path><path class="cls-1" d="M445.65,1491.21v163s277.64,5.48,292.15,292.15c0,0-2.07,268.63-288,288L448.46,2397s241.68,14.14,374.29-205.5,62.16-381.24,24.86-464.12S657,1491.21,445.65,1491.21Z" transform="translate(1.52 -10.06)"></path><path class="cls-1" d="M441.05,2974v162.95s277.64,5.48,292.15,292.15c0,0-2.07,268.62-288,288v159.48s240.35,17.38,373-202.25S880.31,3293,843,3210.16,652.39,2974,441.05,2974Z" transform="translate(1.52 -10.06)"></path><path class="cls-2" d="M452.81,750.54v163S175.16,919,160.66,1205.64c0,0,2.07,268.62,288,288v159.47s-240.35,17.38-373-202.25S13.54,1069.63,50.84,986.75,241.46,750.54,452.81,750.54Z" transform="translate(1.52 -10.06)"></path><path class="cls-2" d="M452.81,2233.43v163s-277.65,5.48-292.15,292.15c0,0,2.07,268.62,288,288V3136s-240.35,17.38-373-202.25-62.16-381.25-24.86-464.13S241.46,2233.43,452.81,2233.43Z" transform="translate(1.52 -10.06)"></path><circle class="cls-2" cx="450.25" cy="453.48" r="290.08"></circle><circle class="cls-3" cx="450.25" cy="1196.19" r="290.08"></circle><circle class="cls-4" cx="450.25" cy="1931.81" r="290.08"></circle><circle class="cls-3" cx="450.25" cy="2677.59" r="290.08"></circle><circle class="cls-3" cx="456.4" cy="3421.5" r="290.08"></circle><text class="cls-5" transform="translate(256.49 428.79)">S<tspan class="cls-6" x="75.82" y="0">t</tspan><tspan x="133.25" y="0">ep 1</tspan></text><text class="cls-7" transform="translate(285.71 589.33)">R<tspan class="cls-8" x="54.97" y="0">egis</tspan><tspan class="cls-9" x="221.17" y="0">t</tspan><tspan class="cls-10" x="257.14" y="0">er</tspan></text><text class="cls-5" transform="translate(256.49 1153.82)">S<tspan class="cls-6" x="75.82" y="0">t</tspan><tspan x="133.25" y="0">ep 2</tspan></text><text class="cls-5" transform="translate(256.49 1899.16)">S<tspan class="cls-6" x="75.82" y="0">t</tspan><tspan x="133.25" y="0">ep 3</tspan></text><text class="cls-5" transform="translate(256.49 2630.31)">S<tspan class="cls-6" x="75.82" y="0">t</tspan><tspan x="133.25" y="0">ep 4</tspan></text><text class="cls-5" transform="translate(256.49 3375.65)">S<tspan class="cls-6" x="75.82" y="0">t</tspan><tspan x="133.25" y="0">ep 5</tspan></text><text class="cls-11" transform="translate(275.27 1307.88)">Describe</text><text class="cls-12" transform="translate(367.83 2060.09)">T<tspan class="cls-10" x="45.99" y="0">est</tspan></text><text class="cls-13" transform="translate(285.71 2785.88)">C<tspan class="cls-8" x="54.44" y="0">onnect</tspan></text><text class="cls-11" transform="translate(241.45 3532.49)">Schipment</text><path class="cls-2" d="M452.81,3721.64v163s-277.65,5.48-292.15,292.15c0,0,2.07,268.62,288,288v159.48S208.31,4641.6,75.7,4422s-62.16-381.25-24.86-464.13S241.46,3721.64,452.81,3721.64Z" transform="translate(1.52 -10.06)"></path><circle class="cls-3" cx="450.25" cy="4165.81" r="290.08"></circle><text class="cls-5" transform="translate(256.49 4118.52)">S<tspan class="cls-6" x="75.82" y="0">t</tspan><tspan x="133.25" y="0">ep 6</tspan></text><text class="cls-14" transform="translate(381.48 4274.09)">P<tspan class="cls-8" x="53.4" y="0">air</tspan></text></svg> 