<?xml version="1.0" encoding="UTF-8"?> <svg xmlns="http://www.w3.org/2000/svg" id="Calque_1" data-name="Calque 1" viewBox="-150 0 1500 4026.28"><defs><style>.cls-1,.cls-7{fill:#22486b;}.cls-10,.cls-14,.cls-16,.cls-2,.cls-9{fill:#faaa1c;}.cls-3,.cls-4{fill:none;stroke-miterlimit:10;stroke-width:0.5px;}.cls-3{stroke:#1a1a18;}.cls-4{stroke:#1d1d1b;}.cls-5{font-size:140.41px;fill:#1d1d1b;font-family:Ubuntu-Medium, Ubuntu Medium;font-weight:500;}.cls-6{letter-spacing:-0.01em;}.cls-10,.cls-14,.cls-16,.cls-7,.cls-9{font-size:87.11px;font-family:Ubuntu-Bold, Ubuntu;font-weight:700;}.cls-7{letter-spacing:-0.09em;}.cls-10,.cls-8{letter-spacing:-0.01em;}.cls-13,.cls-9{letter-spacing:-0.01em;}.cls-11{letter-spacing:-0.02em;}.cls-12,.cls-16{letter-spacing:-0.02em;}.cls-14{letter-spacing:-0.03em;}.cls-15{letter-spacing:-0.02em;}</style></defs><title>twinning-model</title><path class="cls-1" d="M447.38,4.67v163S725,173.1,739.53,459.77c0,0-2.07,268.62-288,288V907.25s240.35,17.38,373-202.25,62.16-381.25,24.87-464.12S658.72,4.67,447.38,4.67Z" transform="translate(-1.55 -4.67)"></path><path class="cls-1" d="M448.72,1485.83v163s277.65,5.48,292.15,292.15c0,0-2.07,268.62-288,288l-1.33,162.72s241.68,14.14,374.28-205.49S888,1804.91,850.69,1722,660.07,1485.83,448.72,1485.83Z" transform="translate(-1.55 -4.67)"></path><path class="cls-1" d="M444.12,2968.57v162.95s277.65,5.48,292.15,292.15c0,0-2.07,268.62-288,288v159.47s240.35,17.38,373-202.25,62.15-381.24,24.86-464.12S655.47,2968.57,444.12,2968.57Z" transform="translate(-1.55 -4.67)"></path><path class="cls-2" d="M455.88,745.15v163s-277.65,5.47-292.15,292.15c0,0,2.07,268.62,288,288v159.48s-240.35,17.38-373-202.25S16.62,1064.24,53.92,981.36,244.54,745.15,455.88,745.15Z" transform="translate(-1.55 -4.67)"></path><path class="cls-2" d="M455.88,2228V2391s-277.65,5.48-292.15,292.15c0,0,2.07,268.62,288,288v159.47s-240.35,17.38-373-202.25-62.16-381.25-24.86-464.12S244.54,2228,455.88,2228Z" transform="translate(-1.55 -4.67)"></path><circle class="cls-2" cx="451.34" cy="453.48" r="290.08"></circle><circle class="cls-3" cx="451.34" cy="1196.19" r="290.08"></circle><circle class="cls-4" cx="450.25" cy="1931.81" r="290.08"></circle><circle class="cls-3" cx="450.25" cy="2677.59" r="290.08"></circle><circle class="cls-3" cx="456.4" cy="3421.5" r="290.08"></circle><text class="cls-5" transform="translate(257.58 428.79)">S<tspan class="cls-6" x="75.82" y="0">t</tspan><tspan x="133.25" y="0">ep 1</tspan></text><text class="cls-7" transform="translate(351.94 589.33)">T<tspan class="cls-8" x="45.99" y="0">win</tspan></text><text class="cls-5" transform="translate(257.58 1153.82)">S<tspan class="cls-6" x="75.82" y="0">t</tspan><tspan x="133.25" y="0">ep 2</tspan></text><text class="cls-5" transform="translate(256.49 1899.16)">S<tspan class="cls-6" x="75.82" y="0">t</tspan><tspan x="133.25" y="0">ep 3</tspan></text><text class="cls-5" transform="translate(256.49 2630.31)">S<tspan class="cls-6" x="75.82" y="0">t</tspan><tspan x="133.25" y="0">ep 4</tspan></text><text class="cls-5" transform="translate(256.49 3375.65)">S<tspan class="cls-6" x="75.82" y="0">t</tspan><tspan x="133.25" y="0">ep 5</tspan></text><text class="cls-9" transform="translate(312.55 1307.88)">Select</text><text class="cls-10" transform="translate(275.27 2060.09)">P<tspan class="cls-11" x="55.14" y="0">r</tspan><tspan x="90.07" y="0">epa</tspan><tspan class="cls-12" x="238.85" y="0">r</tspan><tspan class="cls-13" x="273.78" y="0">e</tspan></text><text class="cls-14" transform="translate(285.71 2785.88)">P<tspan class="cls-13" x="53.83" y="0">er</tspan><tspan class="cls-15" x="139.55" y="0">f</tspan><tspan class="cls-8" x="174.65" y="0">orm</tspan></text><text class="cls-16" transform="translate(256.49 3532.49)">F<tspan class="cls-13" x="48.17" y="0">eedback</tspan></text><text x="-1.55" y="-4.67"></text><text x="-1.55" y="-4.67"></text></svg> 