<svg id="Calque_1" data-name="Calque 1" xmlns="http://www.w3.org/2000/svg" viewBox="-150 -200 1500 4026.28"><defs><style>.cls-1,.cls-7{fill:#22486b;}.cls-11,.cls-12,.cls-15,.cls-2{fill:#faaa1c;}.cls-3,.cls-4{fill:none;stroke-miterlimit:10;stroke-width:0.5px;}.cls-3{stroke:#1a1a18;}.cls-4{stroke:#1d1d1b;}.cls-5{font-size:140.41px;fill:#1d1d1b;font-family:Ubuntu-Medium, Ubuntu Medium;font-weight:500;}.cls-6{letter-spacing:-0.01em;}.cls-11,.cls-12,.cls-15,.cls-7{font-size:87.11px;font-family:Ubuntu-Bold, Ubuntu;font-weight:700;}.cls-7{letter-spacing:-0.04em;}.cls-11,.cls-8{letter-spacing:-0.01em;}.cls-9{letter-spacing:-0.03em;}.cls-10,.cls-12{letter-spacing:-0.01em;}.cls-13{letter-spacing:-0.02em;}.cls-14{letter-spacing:-0.02em;}.cls-15{letter-spacing:-0.09em;}</style></defs><title>receive-model</title><text x="1.52" y="-354.62"/><text x="1.52" y="-354.62"/><path class="cls-1" d="M443.22,354.62v163s277.64,5.48,292.15,292.15c0,0-2.08,268.62-288,288V1257.2s240.35,17.38,373-202.25,62.16-381.25,24.86-464.13S654.56,354.62,443.22,354.62Z" transform="translate(1.52 -354.62)"/><path class="cls-1" d="M445.65,1835.78v163s277.64,5.48,292.15,292.15c0,0-2.07,268.62-288,288l-1.33,162.72s241.68,14.14,374.29-205.49,62.16-381.25,24.86-464.13S657,1835.78,445.65,1835.78Z" transform="translate(1.52 -354.62)"/><path class="cls-2" d="M452.81,1095.1v163s-277.65,5.48-292.15,292.15c0,0,2.07,268.63,288,288v159.48s-240.35,17.38-373-202.25-62.16-381.25-24.86-464.13S241.46,1095.1,452.81,1095.1Z" transform="translate(1.52 -354.62)"/><path class="cls-2" d="M452.81,2578v163s-277.65,5.48-292.15,292.15c0,0,2.07,268.62,288,288v159.48S208.31,3498,75.7,3278.32s-62.16-381.25-24.86-464.13S241.46,2578,452.81,2578Z" transform="translate(1.52 -354.62)"/><circle class="cls-2" cx="450.25" cy="453.48" r="290.08"/><circle class="cls-3" cx="450.25" cy="1196.19" r="290.08"/><circle class="cls-4" cx="450.25" cy="1931.81" r="290.08"/><circle class="cls-3" cx="450.25" cy="2677.59" r="290.08"/><text class="cls-5" transform="translate(256.49 428.79)">S<tspan class="cls-6" x="75.82" y="0">t</tspan><tspan x="133.25" y="0">ep 1</tspan></text><text class="cls-7" transform="translate(285.71 589.33)">R<tspan class="cls-8" x="54.97" y="0">egis</tspan><tspan class="cls-9" x="221.17" y="0">t</tspan><tspan class="cls-10" x="257.14" y="0">er</tspan></text><text class="cls-5" transform="translate(256.49 1153.82)">S<tspan class="cls-6" x="75.82" y="0">t</tspan><tspan x="133.25" y="0">ep 2</tspan></text><text class="cls-5" transform="translate(256.49 1899.16)">S<tspan class="cls-6" x="75.82" y="0">t</tspan><tspan x="133.25" y="0">ep 3</tspan></text><text class="cls-5" transform="translate(256.49 2630.31)">S<tspan class="cls-6" x="75.82" y="0">t</tspan><tspan x="133.25" y="0">ep 4</tspan></text><text class="cls-11" transform="translate(275.27 1307.88)">Describe</text><text class="cls-12" transform="translate(275.27 2060.08)">App<tspan class="cls-13" x="165.16" y="0">r</tspan><tspan class="cls-14" x="200.09" y="0">o</tspan><tspan class="cls-13" x="250.79" y="0">v</tspan><tspan class="cls-8" x="296.87" y="0">al</tspan></text><text class="cls-15" transform="translate(369.1 2785.88)">T<tspan class="cls-10" x="45.99" y="0">est</tspan></text></svg>